<?xml version="1.0" encoding="UTF-8"?>
<svg id="Layer_2" xmlns="http://www.w3.org/2000/svg" viewBox="0 0 226.3 226.3">
  <defs>
    <style>
      .cls-1 {
        fill: #1a1a1a;
        stroke-width: .7px;
      }

      .cls-1,
      .cls-2 {
        stroke: #fff;
        stroke-miterlimit: 10;
      }

      .cls-2 {
        stroke-width: .7px;
      }

      .cls-2,
      .cls-3 {
        fill: #000;
      }

      .cls-3,
      .cls-4 {
        stroke-width: 0px;
      }

      .cls-4 {
        fill: #fff;
      }
    </style>
  </defs>
  <g id="Layer_3">
    <path id="Background_A" class="cls-2"
      d="M74.2,225.9c-5,0-9.7-1.9-13.3-5.5L5.8,165.4c-3.5-3.5-5.5-8.2-5.5-13.3v-77.9c0-5,1.9-9.7,5.5-13.3L60.9,5.8c3.5-3.5,8.2-5.5,13.3-5.5h77.9c5,0,9.7,1.9,13.3,5.5l55.1,55.1c3.5,3.5,5.5,8.2,5.5,13.3v77.9c0,5-1.9,9.7-5.5,13.3l-55.1,55.1c-3.5,3.5-8.2,5.5-13.3,5.5h-77.9Z" />
    <path id="Background_B" class="cls-1"
      d="M209.4,156.5l-52.9,52.9c-1.6,1.6-3.7,2.5-5.9,2.5h-74.9c-2.2,0-4.4-.9-5.9-2.5l-52.9-52.9c-1.6-1.6-2.5-3.7-2.5-5.9v-74.9c0-2.2.9-4.4,2.5-5.9l52.9-52.9c1.6-1.6,3.7-2.5,5.9-2.5h74.9c2.2,0,4.4.9,5.9,2.5l52.9,52.9c1.6,1.6,2.5,3.7,2.5,5.9v74.9c0,2.2-.9,4.4-2.5,5.9Z" />
    <path id="LettersBackground" class="cls-3"
      d="M69.9,185.8c-27.9,0-44.6-18.6-44.6-49.9s16.7-49.9,44.6-49.9h25.2v-23.1c0-6.1,4.8-11.1,10.8-11.5,5.4-5.7,14.2-11,28.5-11h22c27.9,0,44.6,18.6,44.6,49.9s-16.7,49.9-44.6,49.9h-25.2v23.1c0,6.1-4.8,11.1-10.8,11.5-5.4,5.7-14.2,11-28.5,11h-22ZM71.4,121.5c-6.2,0-9.9.7-9.9,14.5s1.6,11.1,2.5,12.2c.4.5,1.7,2.1,7.4,2.1h15.9c3.8,0,5.8-.7,6.3-1.3.4-.4,1.5-2.1,1.5-8v-19.4h-23.7ZM154.9,104.8c6.2,0,9.9-.7,9.9-14.5s-1.6-11.1-2.5-12.2c-.4-.5-1.7-2.1-7.4-2.1h-15.9c-3.8,0-5.8.7-6.3,1.3-.4.4-1.5,2.1-1.5,8v19.4h23.7Z" />
    <path id="Letters" class="cls-4"
      d="M156.4,50.5h-22c-10.8,0-18.8,3.6-23.7,11h-4.1c-.8,0-1.5.7-1.5,1.5v31.6c0,.8-.7,1.5-1.5,1.5h-33.7c-21.3,0-34.6,13-34.6,39.9s13.3,39.9,34.6,39.9h22c10.8,0,18.8-3.6,23.7-11h4.1c.8,0,1.5-.7,1.5-1.5v-31.6c0-.8.7-1.5,1.5-1.5h33.7c21.3,0,34.6-13,34.6-39.9s-13.3-39.9-34.6-39.9ZM87.2,160.2h-15.9c-13.7,0-19.9-7.1-19.9-24.3s6.2-24.5,19.9-24.5h32.2c.8,0,1.5.7,1.5,1.5v27.9c0,13.6-5,19.3-17.8,19.3ZM154.9,114.8h-32.2c-.8,0-1.5-.7-1.5-1.5v-27.9c0-13.6,5-19.3,17.8-19.3h15.9c13.7,0,19.9,7.1,19.9,24.3s-6.2,24.5-19.9,24.5Z" />
  </g>
</svg>