<?xml version="1.0" encoding="UTF-8"?>
<svg id="Layer_1" xmlns="http://www.w3.org/2000/svg" viewBox="0 0 1367 769">
  <defs>
    <style>
      .cls-1 {
        fill: #000;
      }

      .cls-1,
      .cls-2 {
        stroke: #000;
        stroke-miterlimit: 10;
      }

      .cls-2 {
        stroke-width: 0px;
      }

      .cls-2,
      .cls-3 {
        fill: #fff;
      }

      .cls-3 {
        stroke-width: 0px;
      }
    </style>
  </defs>
  <rect class="cls-1" x=".5" y=".5" width="1366" height="768" />
  <g id="Dark_Photon">
    <path id="N" class="cls-3"
      d="M907.9,424.6h-6.5c-.6,0-1-.4-1-1v-37.9c0-6.3,3.6-9.7,11.2-9.7s9.8,2.6,11.8,8.1l14.2,31c.6,1.2,1.5,2,3.1,2s2.9-1.1,2.9-2.7v-37.5c0-.6.4-1,1-1h6.6c.6,0,1,.4,1,1v37.8c0,6.4-3.7,9.8-11.2,9.8s-9.9-2.6-11.9-8.1l-14.2-31c-.6-1.4-1.5-2.1-3-2.1s-3,1.1-3,2.8v37.5c0,.6-.4,1-1,1Z" />
    <g id="O">
      <path class="cls-3"
        d="M868.5,375.6c14.1,0,22,8.1,22,24.4,0,16.3-7.8,24.2-22,24.2h-6.6c-14.2,0-22-7.9-22-24.2,0-16.3,7.8-24.4,22-24.4h6.6ZM861.9,384.1c-9.4,0-13.5,4.8-13.5,15.9,0,11.1,4,15.7,13.5,15.7h6.6c9.4,0,13.4-4.6,13.4-15.8,0-11.1-4-15.8-13.4-15.8h-6.6Z" />
      <g id="_Radial_Repeat_">
        <circle class="cls-3" cx="865.2" cy="417.4" r="2.9" />
      </g>
      <g id="_Radial_Repeat_-2">
        <circle class="cls-3" cx="847.7" cy="399.9" r="2.9" />
      </g>
      <g id="_Radial_Repeat_-3">
        <circle class="cls-3" cx="865.2" cy="382.4" r="2.9" />
      </g>
      <g id="_Radial_Repeat_-4">
        <circle class="cls-3" cx="882.7" cy="399.9" r="2.9" />
      </g>
    </g>
    <path id="T" class="cls-3"
      d="M835.2,377v5.3c0,1.2-1,2.2-2.2,2.2h-11c-.6,0-1,.4-1,1v38.1c0,.6-.4,1-1,1h-6.6c-.6,0-1-.4-1-1v-38.1c0-.6-.4-1-1-1h-11c-1.2,0-2.2-1-2.2-2.2v-5.3c0-.6.4-1,1-1h34.9c.6,0,1,.4,1,1Z" />
    <g id="O-2">
      <path class="cls-3"
        d="M771.9,376c14.1,0,22,8.1,22,24.4,0,16.3-7.8,24.2-22,24.2h-6.6c-14.2,0-22-7.9-22-24.2,0-16.3,7.8-24.4,22-24.4h6.6ZM765.3,384.5c-9.4,0-13.5,4.8-13.5,15.9,0,11.1,4,15.7,13.5,15.7h6.6c9.4,0,13.4-4.6,13.4-15.8,0-11.1-4-15.8-13.4-15.8h-6.6Z" />
      <g id="_Radial_Repeat_-5">
        <circle class="cls-3" cx="768.6" cy="417.8" r="2.9" />
      </g>
      <g id="_Radial_Repeat_-6">
        <circle class="cls-3" cx="751.1" cy="400.3" r="2.9" />
      </g>
      <g id="_Radial_Repeat_-7">
        <circle class="cls-3" cx="768.6" cy="382.8" r="2.9" />
      </g>
      <g id="_Radial_Repeat_-8">
        <circle class="cls-3" cx="786.1" cy="400.3" r="2.9" />
      </g>
    </g>
    <path id="H" class="cls-3"
      d="M699.6,376.6v17.8c0,.6.4,1,1,1h22.8c.6,0,1-.4,1-1v-17.8c0-.6.4-1,1-1h6.6c.6,0,1,.4,1,1v46.6c0,.6-.4,1-1,1h-6.6c-.6,0-1-.4-1-1v-18.3c0-.6-.4-1-1-1h-22.8c-.6,0-1,.4-1,1v18.3c0,.6-.4,1-1,1h-6.5c-.6,0-1-.4-1-1v-46.6c0-.6.4-1,1-1h6.5c.6,0,1,.4,1,1Z" />
    <path id="P" class="cls-3"
      d="M667,376c10.9,0,15.6,6.8,15.6,14.5s-4.2,15.3-15.6,15.3h-15.1c-.8,0-1.2.4-1.2,1.2v16.6c0,.6-.4,1-1,1h-6.5c-.6,0-1-.4-1-1v-18.2c0-5.5,2.3-7.7,7.6-7.7h17.5c4.8,0,6.8-3.3,6.8-6.7s-2.1-6.5-6.7-6.5h-21.3c-2.2,0-4-1.8-4-4v-3.5c0-.6.4-1,1-1h23.9Z" />
    <path id="K" class="cls-3"
      d="M580.5,377v18.6c0,.6.4,1,1,1h3.7c8.4,0,9.7-.7,12.5-6l7.1-14c.2-.3.5-.5.9-.5h6.9c.7,0,1.2.8.9,1.5l-6.9,13.7c-1.8,3.6-3.6,6.1-6.5,7.8s-.6,1.4.1,1.8c3.2,1.4,5.2,4,7.6,8.6l7.1,13.8c.3.7-.1,1.5-.9,1.5h-7.3c-.4,0-.7-.2-.9-.5l-7.1-13.9c-2.7-5.2-4.4-5.9-13.5-5.9h-3.7c-.6,0-1,.4-1,1v18.3c0,.6-.4,1-1,1h-6.5c-.6,0-1-.4-1-1v-46.6c0-.6.4-1,1-1h6.5c.6,0,1,.4,1,1Z" />
    <g id="R">
      <path class="cls-3"
        d="M546.8,376c10.9,0,15.6,6.8,15.6,14.5s-2.6,11.8-9.2,14.3-.8.9-.5,1.4l9.8,16.9c.4.7,0,1.5-.9,1.5h-7.1c-.4,0-.7-.2-.9-.5l-10.5-17.8c-.2-.3-.5-.5-.9-.5h-12.1c-.8,0-1.2.4-1.2,1.2v16.6c0,.6-.4,1-1,1h-6.5c-.6,0-1-.4-1-1v-18.2c0-5.5,2.3-7.7,7.6-7.7h18.9c4.8,0,6.8-3.3,6.8-6.8s-2.1-6.4-6.8-6.4h-25.6c-.6,0-1-.4-1-1v-6.5c0-.6.4-1,1-1h25.4Z" />
      <rect class="cls-3" x="520.5" y="376" width="6.9" height="11.6" rx="1" ry="1" />
    </g>
    <g id="A">
      <path class="cls-3"
        d="M468.3,424.6h-7.2c-.7,0-1.2-.7-.9-1.4l16.5-41.8c1.8-4.5,5.1-6.3,10.2-6.3s8.4,1.7,10.1,6.3l15.9,41.8c.2.7-.2,1.4-.9,1.4h-7.3c-.4,0-.8-.3-.9-.6l-14.5-38.5c-.4-1.2-1.2-1.7-2.4-1.7s-1.9.5-2.4,1.7l-15.2,38.5c-.2.4-.5.6-.9.6Z" />
      <rect class="cls-3" x="462" y="419" width="13.1" height="5.6" rx="1" ry="1" />
      <rect class="cls-3" x="498" y="419" width="13.1" height="5.6" rx="1" ry="1" />
      <circle class="cls-3" cx="486.5" cy="407.9" r="2.6" />
    </g>
    <path id="D" class="cls-3"
      d="M435.1,376c14.2,0,21.9,7.9,21.9,24.3s-7.6,24.3-21.9,24.3h-17.1c-2.7,0-4-1.3-4-4v-40.7c0-2.7,1.3-4,4-4h17.1ZM422.4,410.7c0,3,2.4,5.4,5.4,5.4h7.3c9.4,0,13.4-4.7,13.4-15.8s-4-15.8-13.4-15.8h-11.8c-.5,0-.9.4-.9.9v25.4Z" />
    <polygon class="cls-2" points="662.8 341.4 666.2 347.3 662.8 353.2 656 353.2 652.5 347.3 656 341.4 662.8 341.4" />
    <polygon class="cls-2" points="662.8 353.2 666.2 359.1 662.8 365 656 365 652.5 359.1 656 353.2 662.8 353.2" />
    <polygon class="cls-2" points="673 347.3 676.4 353.2 673 359.1 666.2 359.1 662.8 353.2 666.2 347.3 673 347.3" />
    <polygon class="cls-2"
      points="652.5 347.3 655.9 353.2 652.5 359.1 645.7 359.1 642.3 353.2 645.7 347.3 652.5 347.3" />
  </g>
</svg>